<!DOCTYPE svg PUBLIC "-//W3C//DTD SVG 20010904//EN" "http://www.w3.org/TR/2001/REC-SVG-20010904/DTD/svg10.dtd">
<svg version="1.0" xmlns="http://www.w3.org/2000/svg" width="1680px" height="1050px" viewBox="0 0 12000 7500" preserveAspectRatio="xMidYMid meet">
<g id="layer101" fill="#13652a" stroke="none">
 <path d="M0 3750 l0 -3750 6000 0 6000 0 0 3750 0 3750 -6000 0 -6000 0 0 -3750z"/>
 </g>
<g id="layer102" fill="#27713c" stroke="none">
 <path d="M0 3750 l0 -3750 6000 0 6000 0 0 3750 0 3750 -6000 0 -6000 0 0 -3750z m489 -2785 l-4 -85 108 0 c88 0 107 -3 107 -15 0 -12 -19 -15 -108 -15 l-109 0 -1 -32 c-2 -82 30 -107 146 -115 39 -3 72 -10 72 -14 0 -15 -147 -10 -187 6 -62 25 -67 42 -71 208 l-4 147 27 0 27 0 -3 -85z m491 0 l0 -85 60 0 c104 0 144 32 157 126 8 63 33 59 33 -5 0 -65 -5 -77 -46 -102 l-35 -21 33 -17 c18 -9 41 -31 52 -49 18 -32 18 -36 2 -68 -24 -51 -64 -64 -196 -64 l-110 0 0 185 0 185 25 0 c25 0 25 -1 25 -85z m1018 -75 c-2 -88 0 -160 4 -160 4 0 13 10 19 23 11 21 111 176 167 260 19 28 31 37 53 37 l29 0 0 -185 0 -185 -25 0 -25 0 -2 162 -3 162 -75 -117 c-41 -64 -87 -136 -101 -160 -20 -33 -32 -43 -57 -45 l-32 -3 0 185 0 186 26 0 25 0 -3 -160z m644 -12 l3 -173 68 -3 c37 -2 67 -7 67 -12 0 -6 -66 -10 -162 -10 -102 0 -158 4 -152 9 5 6 36 11 69 13 l60 3 3 173 c2 163 3 172 22 172 19 0 20 -9 22 -172z m388 -13 l0 -185 -25 0 -25 0 0 185 0 185 25 0 25 0 0 -185z m500 170 c0 -12 -15 -15 -72 -15 -40 -1 -83 -6 -96 -14 -32 -17 -62 -65 -62 -98 l0 -28 115 0 c96 0 115 -3 115 -15 0 -12 -19 -15 -115 -15 l-115 0 0 -31 c0 -36 24 -80 52 -98 10 -6 55 -14 98 -18 44 -3 80 -10 80 -14 0 -15 -145 -10 -181 5 -44 19 -65 42 -84 95 -39 112 6 230 97 251 18 4 63 8 101 9 53 1 67 -2 67 -14z m272 -67 l3 -83 59 -3 c102 -5 147 27 156 111 4 37 10 53 21 55 20 4 37 -64 20 -81 -6 -6 -11 -18 -11 -26 0 -9 -16 -27 -36 -41 l-37 -24 31 -13 c38 -15 62 -49 62 -86 0 -74 -46 -97 -195 -97 l-105 0 0 185 c0 155 2 185 15 185 11 0 15 -18 17 -82z"/>
 <path d="M984 836 c-3 -7 -4 -40 -2 -72 l3 -59 45 -3 c67 -5 129 7 151 29 23 23 25 66 3 97 -14 20 -23 22 -105 22 -66 0 -91 -4 -95 -14z"/>
 <path d="M3807 843 c-4 -3 -7 -32 -7 -63 0 -77 10 -84 104 -77 103 7 116 16 116 75 0 27 -5 53 -12 60 -13 13 -189 17 -201 5z"/>
 </g>
<g id="layer103" fill="#357b48" stroke="none">
 <path d="M0 3750 l0 -3750 6000 0 6000 0 0 3750 0 3750 -6000 0 -6000 0 0 -3750z m489 -2785 l-4 -85 113 0 c92 0 112 -3 112 -15 0 -12 -21 -15 -111 -17 l-112 -3 -4 -38 c-3 -31 1 -43 26 -67 28 -29 33 -30 116 -30 75 0 86 -2 83 -17 -3 -14 -16 -16 -87 -14 -164 4 -181 27 -181 236 l0 135 26 0 26 0 -3 -85z m491 0 l0 -85 55 0 c101 0 145 37 160 133 4 26 11 37 23 37 16 0 17 -7 12 -57 -6 -69 -12 -78 -52 -99 l-31 -16 39 -17 c51 -23 73 -75 50 -119 -27 -52 -40 -57 -178 -61 l-128 -3 0 186 0 186 25 0 c25 0 25 -1 25 -85z m1018 -75 c-2 -88 -1 -160 2 -159 3 0 50 71 106 157 92 144 103 157 132 160 l32 3 0 -185 0 -186 -25 0 -25 0 -2 162 -3 161 -101 -159 c-92 -146 -103 -159 -132 -162 l-32 -3 0 185 0 186 26 0 25 0 -3 -160z m642 -10 l0 -170 70 0 c56 0 70 -3 70 -15 0 -13 -24 -15 -160 -15 -136 0 -160 2 -160 15 0 12 14 15 70 15 l70 0 0 170 c0 163 1 170 20 170 19 0 20 -7 20 -170z m390 -15 l0 -185 -25 0 -25 0 0 185 0 185 25 0 25 0 0 -185z m500 170 c0 -12 -14 -15 -65 -15 -85 0 -127 -18 -148 -63 -9 -19 -17 -44 -17 -56 0 -20 5 -21 115 -21 96 0 115 -3 115 -15 0 -12 -20 -15 -116 -15 l-117 0 6 -42 c4 -32 14 -50 38 -70 30 -25 41 -28 111 -28 63 0 78 -3 78 -15 0 -12 -15 -15 -74 -15 -85 0 -120 10 -158 47 -50 48 -61 166 -23 246 27 57 70 74 188 76 53 1 67 -2 67 -14z m280 -70 l0 -85 55 0 c104 0 155 44 155 132 0 33 3 38 23 38 20 0 22 -5 21 -42 -1 -60 -18 -94 -55 -114 l-33 -16 31 -13 c64 -27 83 -101 39 -152 -24 -27 -27 -28 -150 -32 l-126 -3 0 186 c0 179 1 186 20 186 18 0 20 -7 20 -85z"/>
 <path d="M984 836 c-3 -7 -4 -38 -2 -67 l3 -54 85 -3 c76 -2 88 0 109 19 19 18 22 28 17 58 -3 20 -13 42 -23 48 -24 19 -182 18 -189 -1z"/>
 <path d="M3812 783 l3 -68 85 -3 c77 -3 87 -1 103 19 21 26 22 67 1 97 -14 20 -23 22 -105 22 l-90 0 3 -67z"/>
 </g>
<g id="layer104" fill="#458556" stroke="none">
 <path d="M0 3750 l0 -3750 6000 0 6000 0 0 3750 0 3750 -6000 0 -6000 0 0 -3750z m489 -2785 l-4 -85 113 0 c92 0 112 -3 112 -15 0 -12 -22 -15 -112 -17 l-113 -3 1 -44 c0 -35 6 -49 28 -68 24 -20 37 -23 112 -23 74 0 85 -2 82 -17 -3 -14 -16 -16 -87 -14 -164 4 -181 26 -181 231 l0 140 26 0 26 0 -3 -85z m493 3 l3 -83 45 -3 c98 -7 149 31 160 118 4 36 9 46 25 48 20 3 20 -1 15 -56 -6 -62 -19 -87 -51 -97 -28 -9 -24 -19 15 -38 48 -23 65 -75 39 -120 -29 -49 -54 -57 -185 -57 l-118 0 0 185 0 185 25 0 c24 0 24 -2 27 -82z m1016 -79 l-3 -160 22 27 c12 15 27 39 34 53 7 14 24 42 38 61 14 19 47 68 73 108 42 63 51 72 78 72 l30 0 0 -185 0 -185 -25 0 -25 0 0 151 c0 104 -3 150 -11 147 -6 -2 -52 -69 -103 -148 -84 -132 -95 -145 -124 -148 l-32 -3 0 185 0 186 26 0 25 0 -3 -161z m644 -6 l3 -168 68 -3 c51 -2 67 -6 67 -17 0 -13 -27 -15 -160 -15 -136 0 -160 2 -160 15 0 12 14 15 70 15 l70 0 0 170 c0 163 1 170 20 170 19 0 20 -8 22 -167z m388 -18 l0 -185 -25 0 -25 0 0 185 0 185 25 0 25 0 0 -185z m500 170 c0 -12 -14 -15 -66 -15 -39 0 -79 -6 -99 -16 -34 -16 -65 -65 -65 -103 0 -20 5 -21 115 -21 96 0 115 -3 115 -15 0 -12 -19 -15 -109 -15 -70 0 -112 -4 -117 -11 -11 -19 18 -89 47 -110 21 -15 44 -19 103 -19 63 0 76 -3 76 -16 0 -14 -12 -16 -93 -12 -110 4 -145 24 -172 96 -27 70 -16 171 25 222 34 42 45 46 168 48 58 2 72 -1 72 -13z m280 -70 l0 -85 55 0 c104 0 155 44 155 132 0 33 3 38 23 38 21 0 23 -4 22 -47 -2 -60 -17 -88 -57 -109 l-32 -17 36 -14 c60 -24 77 -99 34 -150 -24 -28 -26 -28 -150 -31 l-126 -4 0 186 c0 179 1 186 20 186 18 0 20 -7 20 -85z"/>
 <path d="M984 837 c-3 -8 -4 -39 -2 -68 l3 -54 89 0 c86 0 90 1 110 28 l21 28 -20 37 -20 37 -88 3 c-68 2 -89 0 -93 -11z"/>
 <path d="M3812 783 l3 -68 85 -3 c77 -3 87 -1 103 19 21 26 22 67 1 97 -14 20 -23 22 -105 22 l-90 0 3 -67z"/>
 </g>
<g id="layer105" fill="#50ad27" stroke="none">
 <path d="M0 3750 l0 -3750 6000 0 6000 0 0 3750 0 3750 -6000 0 -6000 0 0 -3750z m490 -2785 l0 -85 110 0 c103 0 110 -1 110 -20 0 -19 -7 -20 -110 -20 l-110 0 0 -39 c0 -32 6 -44 31 -65 27 -23 39 -26 111 -26 69 0 79 -2 76 -17 -2 -9 -6 -16 -10 -15 -5 1 -48 2 -98 2 -86 0 -91 1 -125 31 l-35 31 0 154 0 154 25 0 c25 0 25 -1 25 -85z m492 8 l3 -78 70 -3 c66 -3 72 -1 98 26 20 21 29 43 34 80 5 47 8 52 31 52 24 0 24 -2 20 -57 -4 -49 -10 -61 -41 -89 -32 -30 -33 -33 -15 -36 61 -9 84 -122 34 -165 -25 -21 -36 -23 -157 -23 l-129 0 0 185 0 185 25 0 c23 0 24 -3 27 -77z m1020 -77 l3 -153 99 153 c95 148 100 154 133 154 l33 0 0 -185 0 -185 -25 0 -25 0 0 150 c0 83 -3 150 -7 150 -7 -1 -51 -65 -88 -129 -5 -10 -34 -53 -63 -97 -49 -75 -54 -80 -82 -76 l-30 4 0 184 0 184 25 0 24 0 3 -154z m648 -16 l0 -170 65 0 c51 0 65 -3 65 -15 0 -13 -24 -15 -160 -15 -136 0 -160 2 -160 15 0 12 14 15 70 15 l70 0 0 170 0 170 25 0 25 0 0 -170z m380 -15 l0 -185 -25 0 -25 0 0 185 0 185 25 0 25 0 0 -185z m503 171 c9 -23 -2 -26 -85 -26 -75 0 -81 -2 -109 -29 -16 -16 -29 -38 -29 -49 0 -11 -3 -27 -6 -36 -5 -14 8 -16 109 -16 89 0 116 -3 120 -14 3 -8 3 -17 0 -20 -4 -3 -57 -6 -120 -6 l-113 0 6 -27 c20 -83 51 -103 159 -103 51 0 65 -3 65 -15 0 -12 -16 -15 -85 -15 -98 0 -131 13 -167 62 -20 29 -23 45 -23 125 0 87 1 93 31 130 35 43 57 50 165 52 58 1 78 -3 82 -13z m277 -66 l0 -80 71 0 c64 0 73 3 99 29 21 21 31 42 36 80 6 46 9 51 32 51 24 0 25 -1 19 -57 -5 -51 -10 -62 -43 -90 -23 -20 -31 -33 -22 -33 8 0 27 -9 42 -21 21 -17 26 -29 26 -68 0 -39 -5 -52 -27 -74 -27 -25 -33 -26 -153 -28 l-125 -1 -3 186 -2 186 25 0 c25 0 25 -1 25 -80z"/>
 <path d="M985 837 c-4 -8 -5 -39 -3 -68 l3 -54 75 -3 c95 -3 124 10 128 58 5 61 -14 74 -112 79 -69 2 -87 0 -91 -12z"/>
 <path d="M3812 784 l3 -69 88 0 c97 0 117 11 117 65 0 53 -20 65 -120 69 l-91 3 3 -68z"/>
 </g>
<g id="layer106" fill="#e83023" stroke="none">
 <path d="M0 3750 l0 -3750 6000 0 6000 0 0 3750 0 3750 -6000 0 -6000 0 0 -3750z m1880 -2679 c0 -5 -34 -66 -75 -136 -41 -69 -75 -128 -75 -130 0 -3 -21 -39 -47 -81 -46 -76 -46 -76 -63 -54 -9 12 -25 38 -35 58 -11 21 -32 56 -47 80 -15 24 -28 46 -28 50 0 4 -15 30 -32 58 -47 73 -58 92 -58 104 0 6 65 10 180 10 204 0 209 -2 165 -66 -15 -22 -47 -76 -73 -121 -25 -46 -52 -83 -59 -83 -7 0 -13 4 -13 10 0 9 -53 98 -92 153 -33 47 -20 57 76 57 47 0 88 -5 91 -10 8 -13 -44 -110 -59 -110 -13 0 -41 58 -32 67 3 4 13 -2 20 -13 15 -19 15 -19 30 1 8 11 16 23 16 28 0 4 -30 7 -66 7 l-66 0 23 -37 c57 -94 70 -113 77 -113 4 0 25 30 47 68 21 37 47 82 57 100 l20 32 -151 0 -151 0 11 -27 c5 -14 22 -45 37 -67 16 -23 31 -49 35 -59 14 -36 88 -157 96 -157 5 0 11 8 15 18 6 20 62 120 76 136 5 7 23 39 40 71 16 33 42 77 55 98 l25 37 -235 0 c-194 0 -235 -2 -235 -14 0 -8 33 -69 73 -136 86 -146 156 -272 157 -283 1 -26 -33 23 -111 162 -14 25 -38 64 -53 85 -14 21 -26 43 -26 48 0 4 -12 27 -27 51 -36 55 -54 97 -47 108 7 12 534 12 534 0z m-1390 -106 l0 -85 110 0 c103 0 110 -1 110 -20 0 -19 -7 -20 -110 -20 l-110 0 0 -39 c0 -32 6 -44 31 -65 27 -23 39 -26 111 -26 69 0 79 -2 76 -17 -2 -9 -6 -16 -10 -15 -5 1 -48 2 -98 2 -86 0 -91 1 -125 31 l-35 31 0 154 0 154 25 0 c25 0 25 -1 25 -85z m492 8 l3 -78 70 -3 c66 -3 72 -1 98 26 20 21 29 43 34 80 5 47 8 52 31 52 24 0 24 -2 20 -57 -4 -49 -10 -61 -41 -89 -32 -30 -33 -33 -15 -36 61 -9 84 -122 34 -165 -25 -21 -36 -23 -157 -23 l-129 0 0 185 0 185 25 0 c23 0 24 -3 27 -77z m1020 -77 l3 -153 99 153 c95 148 100 154 133 154 l33 0 0 -185 0 -185 -25 0 -25 0 0 150 c0 83 -3 150 -7 150 -7 -1 -51 -65 -88 -129 -5 -10 -34 -53 -63 -97 -49 -75 -54 -80 -82 -76 l-30 4 0 184 0 184 25 0 24 0 3 -154z m648 -16 l0 -170 65 0 c51 0 65 -3 65 -15 0 -13 -24 -15 -160 -15 -136 0 -160 2 -160 15 0 12 14 15 70 15 l70 0 0 170 0 170 25 0 25 0 0 -170z m380 -15 l0 -185 -25 0 -25 0 0 185 0 185 25 0 25 0 0 -185z m503 171 c9 -23 -2 -26 -85 -26 -75 0 -81 -2 -109 -29 -16 -16 -29 -38 -29 -49 0 -11 -3 -27 -6 -36 -5 -14 8 -16 109 -16 89 0 116 -3 120 -14 3 -8 3 -17 0 -20 -4 -3 -57 -6 -120 -6 l-113 0 6 -27 c20 -83 51 -103 159 -103 51 0 65 -3 65 -15 0 -12 -16 -15 -85 -15 -98 0 -131 13 -167 62 -20 29 -23 45 -23 125 0 87 1 93 31 130 35 43 57 50 165 52 58 1 78 -3 82 -13z m277 -66 l0 -80 71 0 c64 0 73 3 99 29 21 21 31 42 36 80 6 46 9 51 32 51 24 0 25 -1 19 -57 -5 -51 -10 -62 -43 -90 -23 -20 -31 -33 -22 -33 8 0 27 -9 42 -21 21 -17 26 -29 26 -68 0 -39 -5 -52 -27 -74 -27 -25 -33 -26 -153 -28 l-125 -1 -3 186 -2 186 25 0 c25 0 25 -1 25 -80z"/>
 <path d="M985 837 c-4 -8 -5 -39 -3 -68 l3 -54 75 -3 c95 -3 124 10 128 58 5 61 -14 74 -112 79 -69 2 -87 0 -91 -12z"/>
 <path d="M3812 784 l3 -69 88 0 c97 0 117 11 117 65 0 53 -20 65 -120 69 l-91 3 3 -68z"/>
 </g>
<g id="layer107" fill="#63b53d" stroke="none">
 <path d="M0 3750 l0 -3750 6000 0 6000 0 0 3750 0 3750 -6000 0 -6000 0 0 -3750z m4078 -2537 l-3 -68 -232 -3 c-128 -1 -233 0 -233 3 0 3 9 14 20 25 36 36 18 90 -29 90 -37 0 -53 -20 -49 -62 2 -24 9 -34 23 -36 16 -3 18 -1 8 9 -7 7 -13 26 -13 41 0 23 4 28 24 28 34 0 40 -27 14 -66 l-22 -32 -556 1 -555 2 -3 68 -3 67 806 0 806 0 -3 -67z m-2198 -142 c0 -5 -34 -66 -75 -136 -41 -69 -75 -128 -75 -130 0 -3 -21 -39 -47 -81 -46 -76 -46 -76 -63 -54 -9 12 -25 38 -35 58 -11 21 -32 56 -47 80 -15 24 -28 46 -28 50 0 4 -15 30 -32 58 -47 73 -58 92 -58 104 0 6 65 10 180 10 204 0 209 -2 165 -66 -15 -22 -47 -76 -73 -121 -25 -46 -52 -83 -59 -83 -7 0 -13 4 -13 10 0 9 -53 98 -92 153 -33 47 -20 57 76 57 47 0 88 -5 91 -10 8 -13 -44 -110 -59 -110 -13 0 -41 58 -32 67 3 4 13 -2 20 -13 15 -19 15 -19 30 1 8 11 16 23 16 28 0 4 -30 7 -66 7 l-66 0 23 -37 c57 -94 70 -113 77 -113 4 0 25 30 47 68 21 37 47 82 57 100 l20 32 -151 0 -151 0 11 -27 c5 -14 22 -45 37 -67 16 -23 31 -49 35 -59 14 -36 88 -157 96 -157 5 0 11 8 15 18 6 20 62 120 76 136 5 7 23 39 40 71 16 33 42 77 55 98 l25 37 -235 0 c-194 0 -235 -2 -235 -14 0 -8 33 -69 73 -136 86 -146 156 -272 157 -283 1 -26 -33 23 -111 162 -14 25 -38 64 -53 85 -14 21 -26 43 -26 48 0 4 -12 27 -27 51 -36 55 -54 97 -47 108 7 12 534 12 534 0z m-1390 -106 l0 -85 110 0 c103 0 110 -1 110 -20 0 -19 -7 -20 -110 -20 l-110 0 0 -39 c0 -32 6 -44 31 -65 27 -23 39 -26 111 -26 69 0 79 -2 76 -17 -2 -9 -6 -16 -10 -15 -5 1 -48 2 -98 2 -86 0 -91 1 -125 31 l-35 31 0 154 0 154 25 0 c25 0 25 -1 25 -85z m492 8 l3 -78 70 -3 c66 -3 72 -1 98 26 20 21 29 43 34 80 5 47 8 52 31 52 24 0 24 -2 20 -57 -4 -49 -10 -61 -41 -89 -32 -30 -33 -33 -15 -36 61 -9 84 -122 34 -165 -25 -21 -36 -23 -157 -23 l-129 0 0 185 0 185 25 0 c23 0 24 -3 27 -77z m1020 -77 l3 -153 99 153 c95 148 100 154 133 154 l33 0 0 -185 0 -185 -25 0 -25 0 0 150 c0 83 -3 150 -7 150 -7 -1 -51 -65 -88 -129 -5 -10 -34 -53 -63 -97 -49 -75 -54 -80 -82 -76 l-30 4 0 184 0 184 25 0 24 0 3 -154z m648 -16 l0 -170 65 0 c51 0 65 -3 65 -15 0 -13 -24 -15 -160 -15 -136 0 -160 2 -160 15 0 12 14 15 70 15 l70 0 0 170 0 170 25 0 25 0 0 -170z m380 -15 l0 -185 -25 0 -25 0 0 185 0 185 25 0 25 0 0 -185z m503 171 c9 -23 -2 -26 -85 -26 -75 0 -81 -2 -109 -29 -16 -16 -29 -38 -29 -49 0 -11 -3 -27 -6 -36 -5 -14 8 -16 109 -16 89 0 116 -3 120 -14 3 -8 3 -17 0 -20 -4 -3 -57 -6 -120 -6 l-113 0 6 -27 c20 -83 51 -103 159 -103 51 0 65 -3 65 -15 0 -12 -16 -15 -85 -15 -98 0 -131 13 -167 62 -20 29 -23 45 -23 125 0 87 1 93 31 130 35 43 57 50 165 52 58 1 78 -3 82 -13z m277 -66 l0 -80 71 0 c64 0 73 3 99 29 21 21 31 42 36 80 6 46 9 51 32 51 24 0 25 -1 19 -57 -5 -51 -10 -62 -43 -90 -23 -20 -31 -33 -22 -33 8 0 27 -9 42 -21 21 -17 26 -29 26 -68 0 -39 -5 -52 -27 -74 -27 -25 -33 -26 -153 -28 l-125 -1 -3 186 -2 186 25 0 c25 0 25 -1 25 -80z"/>
 <path d="M2910 1253 c0 -23 35 -93 47 -93 7 0 23 21 34 46 20 47 19 68 -3 46 -15 -15 -58 -16 -58 -2 0 6 -4 10 -10 10 -5 0 -10 -3 -10 -7z m60 -42 c0 -6 -4 -13 -10 -16 -5 -3 -10 1 -10 9 0 9 5 16 10 16 6 0 10 -4 10 -9z"/>
 <path d="M3134 1246 c-3 -8 -4 -29 -2 -47 2 -25 9 -35 23 -37 16 -3 18 -1 8 9 -7 7 -13 26 -13 41 0 21 5 28 20 28 11 0 20 -4 20 -10 0 -5 -7 -10 -15 -10 -8 0 -15 -4 -15 -10 0 -5 14 -10 30 -10 27 0 30 3 30 30 0 28 -2 30 -40 30 -26 0 -43 -5 -46 -14z"/>
 <path d="M3340 1210 c0 -43 3 -50 19 -50 14 0 18 5 14 20 -4 15 0 20 16 20 24 0 27 -10 9 -29 -11 -10 -9 -12 7 -9 16 3 20 12 22 51 2 47 -10 64 -20 27 -3 -11 -12 -20 -21 -20 -9 0 -16 8 -16 20 0 11 -7 20 -15 20 -11 0 -15 -12 -15 -50z"/>
 <path d="M3203 1163 c4 -3 10 -3 14 0 3 4 0 7 -7 7 -7 0 -10 -3 -7 -7z"/>
 <path d="M985 837 c-4 -8 -5 -39 -3 -68 l3 -54 75 -3 c95 -3 124 10 128 58 5 61 -14 74 -112 79 -69 2 -87 0 -91 -12z"/>
 <path d="M3812 784 l3 -69 88 0 c97 0 117 11 117 65 0 53 -20 65 -120 69 l-91 3 3 -68z"/>
 </g>
<g id="layer108" fill="#70bb4e" stroke="none">
 <path d="M0 3750 l0 -3750 6000 0 6000 0 0 3750 0 3750 -6000 0 -6000 0 0 -3750z m4078 -2537 l-3 -68 -232 -3 c-128 -1 -233 0 -233 3 0 3 9 14 20 25 36 36 18 90 -29 90 -37 0 -53 -20 -49 -62 2 -24 9 -34 23 -36 16 -3 18 -1 8 9 -7 7 -13 26 -13 41 0 23 4 28 24 28 34 0 40 -27 14 -66 l-22 -32 -556 1 -555 2 -3 68 -3 67 806 0 806 0 -3 -67z m-2198 -142 c0 -12 -69 -143 -85 -161 -8 -8 -18 -26 -24 -40 -6 -14 -20 -38 -31 -55 -11 -16 -31 -53 -45 -81 -14 -28 -33 -58 -43 -68 -18 -16 -21 -13 -60 48 -23 35 -42 66 -42 70 0 3 -13 24 -29 48 -16 24 -36 59 -45 78 -9 19 -25 49 -35 65 -36 55 -37 55 159 55 199 0 212 -4 171 -56 -12 -15 -21 -32 -21 -38 0 -6 -16 -36 -36 -66 -20 -30 -41 -67 -46 -82 -12 -34 -45 -37 -58 -5 -17 38 -71 131 -87 149 -9 10 -13 24 -10 33 5 12 25 15 97 15 59 0 90 -4 90 -11 0 -6 -10 -33 -22 -60 -27 -59 -52 -64 -73 -16 -15 36 -2 50 20 21 15 -21 19 -19 29 14 7 21 5 22 -48 22 l-56 0 28 -52 c39 -73 56 -98 64 -98 5 0 8 6 8 13 0 7 16 37 36 67 19 29 41 69 49 87 l14 33 -144 0 -145 0 12 -27 c7 -16 24 -46 37 -68 46 -72 50 -80 66 -110 9 -16 27 -47 39 -68 l23 -39 22 35 c11 19 21 37 21 41 0 4 28 54 63 111 34 58 70 120 79 138 l18 32 -227 3 c-124 1 -228 1 -230 -1 -2 -3 1 -15 7 -28 10 -25 13 -30 66 -114 18 -27 39 -66 48 -85 9 -19 25 -48 36 -65 10 -16 26 -44 34 -61 8 -17 19 -35 25 -38 13 -8 15 -56 3 -56 -5 0 -21 24 -37 53 -15 28 -38 70 -51 92 -13 22 -28 51 -34 65 -6 14 -17 32 -25 40 -7 8 -26 38 -41 66 -16 29 -42 73 -57 98 -15 25 -25 51 -22 56 8 12 545 14 545 1z m-1390 -106 l0 -85 110 0 c103 0 110 -1 110 -20 0 -19 -7 -20 -110 -20 l-110 0 0 -39 c0 -32 6 -44 31 -65 27 -23 39 -26 111 -26 69 0 79 -2 76 -17 -2 -9 -6 -16 -10 -15 -5 1 -48 2 -98 2 -86 0 -91 1 -125 31 l-35 31 0 154 0 154 25 0 c25 0 25 -1 25 -85z m492 8 l3 -78 70 -3 c66 -3 72 -1 98 26 20 21 29 43 34 80 5 47 8 52 31 52 24 0 24 -2 20 -57 -4 -49 -10 -61 -41 -89 -32 -30 -33 -33 -15 -36 61 -9 84 -122 34 -165 -25 -21 -36 -23 -157 -23 l-129 0 0 185 0 185 25 0 c23 0 24 -3 27 -77z m1020 -77 l3 -153 99 153 c95 148 100 154 133 154 l33 0 0 -185 0 -185 -25 0 -25 0 0 150 c0 83 -3 150 -7 150 -7 -1 -51 -65 -88 -129 -5 -10 -34 -53 -63 -97 -49 -75 -54 -80 -82 -76 l-30 4 0 184 0 184 25 0 24 0 3 -154z m648 -16 l0 -170 65 0 c51 0 65 -3 65 -15 0 -13 -24 -15 -160 -15 -136 0 -160 2 -160 15 0 12 14 15 70 15 l70 0 0 170 0 170 25 0 25 0 0 -170z m380 -15 l0 -185 -25 0 -25 0 0 185 0 185 25 0 25 0 0 -185z m503 171 c9 -23 -2 -26 -85 -26 -75 0 -81 -2 -109 -29 -16 -16 -29 -38 -29 -49 0 -11 -3 -27 -6 -36 -5 -14 8 -16 109 -16 89 0 116 -3 120 -14 3 -8 3 -17 0 -20 -4 -3 -57 -6 -120 -6 l-113 0 6 -27 c20 -83 51 -103 159 -103 51 0 65 -3 65 -15 0 -12 -16 -15 -85 -15 -98 0 -131 13 -167 62 -20 29 -23 45 -23 125 0 87 1 93 31 130 35 43 57 50 165 52 58 1 78 -3 82 -13z m277 -66 l0 -80 71 0 c64 0 73 3 99 29 21 21 31 42 36 80 6 46 9 51 32 51 24 0 25 -1 19 -57 -5 -51 -10 -62 -43 -90 -23 -20 -31 -33 -22 -33 8 0 27 -9 42 -21 21 -17 26 -29 26 -68 0 -39 -5 -52 -27 -74 -27 -25 -33 -26 -153 -28 l-125 -1 -3 186 -2 186 25 0 c25 0 25 -1 25 -80z"/>
 <path d="M2910 1253 c0 -23 35 -93 47 -93 7 0 23 21 34 46 20 47 19 68 -3 46 -15 -15 -58 -16 -58 -2 0 6 -4 10 -10 10 -5 0 -10 -3 -10 -7z m60 -42 c0 -6 -4 -13 -10 -16 -5 -3 -10 1 -10 9 0 9 5 16 10 16 6 0 10 -4 10 -9z"/>
 <path d="M3134 1246 c-3 -8 -4 -29 -2 -47 2 -25 9 -35 23 -37 16 -3 18 -1 8 9 -7 7 -13 26 -13 41 0 21 5 28 20 28 11 0 20 -4 20 -10 0 -5 -7 -10 -15 -10 -8 0 -15 -4 -15 -10 0 -5 14 -10 30 -10 27 0 30 3 30 30 0 28 -2 30 -40 30 -26 0 -43 -5 -46 -14z"/>
 <path d="M3340 1210 c0 -43 3 -50 19 -50 14 0 18 5 14 20 -4 15 0 20 16 20 24 0 27 -10 9 -29 -11 -10 -9 -12 7 -9 16 3 20 12 22 51 2 47 -10 64 -20 27 -3 -11 -12 -20 -21 -20 -9 0 -16 8 -16 20 0 11 -7 20 -15 20 -11 0 -15 -12 -15 -50z"/>
 <path d="M3203 1163 c4 -3 10 -3 14 0 3 4 0 7 -7 7 -7 0 -10 -3 -7 -7z"/>
 <path d="M985 837 c-4 -8 -5 -39 -3 -68 l3 -54 75 -3 c95 -3 124 10 128 58 5 61 -14 74 -112 79 -69 2 -87 0 -91 -12z"/>
 <path d="M3812 784 l3 -69 88 0 c97 0 117 11 117 65 0 53 -20 65 -120 69 l-91 3 3 -68z"/>
 </g>
<g id="layer109" fill="#ed6f5d" stroke="none">
 <path d="M0 3750 l0 -3750 6000 0 6000 0 0 3750 0 3750 -6000 0 -6000 0 0 -3750z m4078 -2537 l-3 -68 -232 -3 c-128 -1 -233 0 -233 3 0 3 9 14 20 25 36 36 18 90 -29 90 -37 0 -53 -20 -49 -62 2 -24 9 -34 23 -36 16 -3 18 -1 8 9 -7 7 -13 26 -13 41 0 23 4 28 24 28 34 0 40 -27 14 -66 l-22 -32 -556 1 -555 2 -3 68 -3 67 806 0 806 0 -3 -67z m-2198 -147 c0 -27 -228 -411 -244 -411 -16 0 -216 335 -216 361 0 11 35 14 185 14 163 0 185 -2 185 -16 0 -25 -142 -265 -154 -261 -15 5 -126 188 -126 210 0 15 11 17 94 17 52 0 97 -4 101 -10 7 -11 -53 -120 -66 -120 -15 0 -50 64 -45 83 3 13 -2 17 -21 17 l-24 0 32 -57 c60 -106 50 -106 113 4 l56 98 -76 3 c-41 2 -106 2 -143 0 l-68 -3 81 -142 c45 -79 85 -145 88 -148 5 -5 74 109 182 298 l27 47 -231 0 c-126 0 -230 -2 -230 -5 0 -3 54 -100 120 -215 66 -114 120 -213 120 -219 0 -21 -25 -11 -41 17 -8 15 -68 118 -133 230 -64 111 -114 207 -111 212 4 6 113 10 276 10 224 0 269 -2 269 -14z m-1390 -101 l0 -85 110 0 c103 0 110 -1 110 -20 0 -19 -7 -20 -110 -20 l-110 0 0 -38 c0 -64 32 -85 136 -90 70 -4 84 -7 82 -20 -2 -9 -6 -15 -10 -14 -5 1 -48 2 -98 2 -86 0 -91 1 -125 31 l-35 31 0 154 0 154 25 0 c25 0 25 -1 25 -85z m492 8 l3 -78 67 -3 c61 -3 69 -1 98 25 24 22 32 39 37 81 5 47 8 52 31 52 24 0 24 -2 20 -57 -4 -49 -9 -60 -41 -90 -28 -25 -32 -33 -19 -33 35 0 65 -46 65 -97 0 -38 -4 -50 -27 -70 -25 -22 -35 -23 -157 -23 l-129 0 0 185 0 185 25 0 c23 0 24 -3 27 -77z m1020 -77 l3 -153 99 153 c95 148 100 154 133 154 l33 0 0 -185 0 -185 -25 0 -25 0 0 150 c0 135 -7 177 -24 135 -3 -8 -46 -77 -96 -153 -86 -133 -91 -138 -120 -134 l-30 4 0 184 0 184 25 0 24 0 3 -154z m648 -16 l0 -170 65 0 c51 0 65 -3 65 -15 0 -13 -24 -15 -160 -15 -136 0 -160 2 -160 15 0 12 14 15 70 15 l70 0 0 170 0 170 25 0 25 0 0 -170z m380 -15 l0 -185 -25 0 -25 0 0 185 0 185 25 0 25 0 0 -185z m503 171 c9 -23 -2 -26 -85 -26 -75 0 -81 -2 -109 -29 -16 -16 -29 -38 -29 -49 0 -11 -3 -27 -6 -36 -5 -14 8 -16 109 -16 89 0 116 -3 120 -14 3 -8 3 -17 0 -20 -4 -3 -57 -6 -120 -6 l-113 0 6 -27 c19 -80 56 -103 160 -103 50 0 64 -3 64 -15 0 -21 -159 -21 -200 0 -47 24 -72 69 -78 140 -6 83 3 128 35 166 36 42 54 48 154 48 66 1 88 -2 92 -13z m277 -66 l0 -80 71 0 c64 0 73 3 99 29 21 21 31 42 36 80 6 46 9 51 32 51 24 0 25 -1 19 -57 -5 -51 -10 -62 -43 -90 -23 -20 -31 -33 -22 -33 8 0 27 -9 42 -21 22 -17 26 -28 26 -69 0 -32 -6 -55 -19 -71 -18 -23 -28 -24 -151 -29 -72 -3 -134 -3 -136 -1 -2 2 -4 87 -4 188 l0 183 25 0 c25 0 25 -1 25 -80z"/>
 <path d="M2910 1253 c0 -23 35 -93 47 -93 7 0 23 21 34 46 20 47 19 68 -3 46 -15 -15 -58 -16 -58 -2 0 6 -4 10 -10 10 -5 0 -10 -3 -10 -7z m60 -42 c0 -6 -4 -13 -10 -16 -5 -3 -10 1 -10 9 0 9 5 16 10 16 6 0 10 -4 10 -9z"/>
 <path d="M3134 1246 c-3 -8 -4 -29 -2 -47 2 -25 9 -35 23 -37 16 -3 18 -1 8 9 -7 7 -13 26 -13 41 0 21 5 28 20 28 11 0 20 -4 20 -10 0 -5 -7 -10 -15 -10 -8 0 -15 -4 -15 -10 0 -5 14 -10 30 -10 27 0 30 3 30 30 0 28 -2 30 -40 30 -26 0 -43 -5 -46 -14z"/>
 <path d="M3340 1210 c0 -43 3 -50 19 -50 14 0 18 5 14 20 -4 15 0 20 16 20 24 0 27 -10 9 -29 -11 -10 -9 -12 7 -9 16 3 20 12 22 51 2 47 -10 64 -20 27 -3 -11 -12 -20 -21 -20 -9 0 -16 8 -16 20 0 11 -7 20 -15 20 -11 0 -15 -12 -15 -50z"/>
 <path d="M3203 1163 c4 -3 10 -3 14 0 3 4 0 7 -7 7 -7 0 -10 -3 -7 -7z"/>
 <path d="M1620 930 c13 -24 26 -26 34 -4 9 23 8 24 -19 24 -23 0 -24 -2 -15 -20z"/>
 <path d="M985 837 c-4 -8 -5 -39 -3 -68 l3 -54 75 -3 c95 -3 124 10 128 58 5 61 -14 74 -112 79 -69 2 -87 0 -91 -12z"/>
 <path d="M3812 784 l3 -69 88 0 c97 0 117 11 117 65 0 53 -20 65 -120 69 l-91 3 3 -68z"/>
 </g>
<g id="layer110" fill="#f18775" stroke="none">
 <path d="M0 3750 l0 -3750 6000 0 6000 0 0 3750 0 3750 -6000 0 -6000 0 0 -3750z m4088 -2537 l-3 -68 -810 0 -810 0 -3 68 -3 67 816 0 816 0 -3 -67z m-2208 -147 c0 -27 -228 -411 -244 -411 -16 0 -216 335 -216 361 0 11 35 14 185 14 163 0 185 -2 185 -16 0 -25 -142 -265 -154 -261 -15 5 -126 188 -126 210 0 15 11 17 94 17 52 0 97 -4 101 -10 7 -11 -53 -120 -66 -120 -15 0 -50 64 -45 83 3 13 -2 17 -21 17 l-24 0 32 -57 c60 -106 50 -106 113 4 l56 98 -76 3 c-41 2 -106 2 -143 0 l-68 -3 81 -142 c45 -79 85 -145 88 -148 5 -5 74 109 182 298 l27 47 -231 0 c-126 0 -230 -2 -230 -5 0 -3 54 -100 120 -215 66 -114 120 -213 120 -219 0 -21 -25 -11 -41 17 -8 15 -68 118 -133 230 -64 111 -114 207 -111 212 4 6 113 10 276 10 224 0 269 -2 269 -14z m-1390 -101 l0 -85 110 0 c103 0 110 -1 110 -20 0 -19 -7 -20 -110 -20 l-110 0 0 -38 c0 -64 32 -85 136 -90 70 -4 84 -7 82 -20 -2 -9 -6 -15 -10 -14 -5 1 -48 2 -98 2 -86 0 -91 1 -125 31 l-35 31 0 154 0 154 25 0 c25 0 25 -1 25 -85z m492 8 l3 -78 67 -3 c61 -3 69 -1 98 25 24 22 32 39 37 81 5 47 8 52 31 52 24 0 24 -2 20 -57 -4 -49 -9 -60 -41 -90 -28 -25 -32 -33 -19 -33 35 0 65 -46 65 -97 0 -38 -4 -50 -27 -70 -25 -22 -35 -23 -157 -23 l-129 0 0 185 0 185 25 0 c23 0 24 -3 27 -77z m1020 -77 l3 -153 99 153 c95 148 100 154 133 154 l33 0 0 -185 0 -185 -25 0 -25 0 0 150 c0 135 -7 177 -24 135 -3 -8 -46 -77 -96 -153 -86 -133 -91 -138 -120 -134 l-30 4 0 184 0 184 25 0 24 0 3 -154z m648 -16 l0 -170 65 0 c51 0 65 -3 65 -15 0 -13 -24 -15 -160 -15 -136 0 -160 2 -160 15 0 12 14 15 70 15 l70 0 0 170 0 170 25 0 25 0 0 -170z m380 -15 l0 -185 -25 0 -25 0 0 185 0 185 25 0 25 0 0 -185z m503 171 c9 -23 -2 -26 -85 -26 -75 0 -81 -2 -109 -29 -16 -16 -29 -38 -29 -49 0 -11 -3 -27 -6 -36 -5 -14 8 -16 109 -16 89 0 116 -3 120 -14 3 -8 3 -17 0 -20 -4 -3 -57 -6 -120 -6 l-113 0 6 -27 c19 -80 56 -103 160 -103 50 0 64 -3 64 -15 0 -21 -159 -21 -200 0 -47 24 -72 69 -78 140 -6 83 3 128 35 166 36 42 54 48 154 48 66 1 88 -2 92 -13z m277 -66 l0 -80 71 0 c64 0 73 3 99 29 21 21 31 42 36 80 6 46 9 51 32 51 24 0 25 -1 19 -57 -5 -51 -10 -62 -43 -90 -23 -20 -31 -33 -22 -33 8 0 27 -9 42 -21 22 -17 26 -28 26 -69 0 -32 -6 -55 -19 -71 -18 -23 -28 -24 -151 -29 -72 -3 -134 -3 -136 -1 -2 2 -4 87 -4 188 l0 183 25 0 c25 0 25 -1 25 -80z"/>
 <path d="M2910 1256 c0 -2 6 -19 14 -38 17 -40 41 -64 50 -49 15 23 34 91 27 91 -5 0 -11 -7 -15 -15 -3 -8 -15 -15 -26 -15 -11 0 -23 7 -26 15 -5 13 -24 22 -24 11z m60 -50 c0 -24 -17 -28 -23 -6 -3 13 0 20 9 20 8 0 14 -6 14 -14z"/>
 <path d="M3141 1246 c-19 -22 -10 -80 12 -84 17 -4 18 -2 3 21 -9 13 -14 32 -10 41 7 17 54 23 54 6 0 -5 -7 -10 -15 -10 -8 0 -15 -4 -15 -10 0 -5 9 -10 20 -10 16 0 20 7 20 30 0 26 -3 30 -29 30 -16 0 -34 -6 -40 -14z"/>
 <path d="M3410 1240 c0 -14 -7 -20 -24 -20 -13 0 -27 6 -29 13 -3 6 -6 -7 -6 -30 -1 -24 3 -43 8 -43 5 0 7 9 4 20 -4 16 0 20 22 20 23 0 26 -4 22 -21 -3 -13 -1 -19 6 -16 14 4 19 97 6 97 -5 0 -9 -9 -9 -20z"/>
 <path d="M3562 1248 c-24 -24 -9 -88 22 -88 6 0 5 5 -2 12 -32 32 0 95 34 67 19 -16 18 -39 -3 -62 -17 -19 -17 -19 2 -16 24 5 33 62 14 85 -14 17 -51 18 -67 2z"/>
 <path d="M1620 930 c13 -24 26 -26 34 -4 9 23 8 24 -19 24 -23 0 -24 -2 -15 -20z"/>
 <path d="M985 837 c-4 -8 -5 -39 -3 -68 l3 -54 75 -3 c95 -3 124 10 128 58 5 61 -14 74 -112 79 -69 2 -87 0 -91 -12z"/>
 <path d="M3812 784 l3 -69 88 0 c97 0 117 11 117 65 0 53 -20 65 -120 69 l-91 3 3 -68z"/>
 </g>
<g id="layer111" fill="#f3a390" stroke="none">
 <path d="M0 3750 l0 -3750 6000 0 6000 0 0 3750 0 3750 -6000 0 -6000 0 0 -3750z m4090 -2540 l0 -70 -815 0 -815 0 0 70 0 70 815 0 815 0 0 -70z m-2210 -144 c0 -27 -228 -411 -244 -411 -16 0 -216 335 -216 361 0 11 35 14 185 14 163 0 185 -2 185 -16 0 -25 -142 -265 -154 -261 -15 5 -126 188 -126 210 0 15 11 17 94 17 52 0 97 -4 101 -10 7 -11 -53 -120 -66 -120 -15 0 -50 64 -45 83 3 13 -2 17 -21 17 l-24 0 32 -57 c60 -106 50 -106 113 4 l56 98 -76 3 c-41 2 -106 2 -143 0 l-68 -3 81 -142 c45 -79 85 -145 88 -148 5 -5 74 109 182 298 l27 47 -231 0 c-126 0 -230 -2 -230 -5 0 -3 54 -100 120 -215 66 -114 120 -213 120 -219 0 -21 -25 -11 -41 17 -8 15 -68 118 -133 230 -64 111 -114 207 -111 212 4 6 113 10 276 10 224 0 269 -2 269 -14z m-1390 -101 l0 -85 110 0 c103 0 110 -1 110 -20 0 -19 -7 -20 -110 -20 l-110 0 0 -38 c0 -64 32 -85 136 -90 70 -4 84 -7 82 -20 -2 -9 -6 -15 -10 -14 -5 1 -48 2 -98 2 -86 0 -91 1 -125 31 l-35 31 0 154 0 154 25 0 c25 0 25 -1 25 -85z m492 8 l3 -78 67 -3 c61 -3 69 -1 98 25 24 22 32 39 37 81 5 47 8 52 31 52 24 0 24 -2 20 -57 -4 -49 -9 -60 -41 -90 -28 -25 -32 -33 -19 -33 35 0 65 -46 65 -97 0 -38 -4 -50 -27 -70 -25 -22 -35 -23 -157 -23 l-129 0 0 185 0 185 25 0 c23 0 24 -3 27 -77z m1020 -77 l3 -153 99 153 c95 148 100 154 133 154 l33 0 0 -185 0 -185 -25 0 -25 0 0 150 c0 135 -7 177 -24 135 -3 -8 -46 -77 -96 -153 -86 -133 -91 -138 -120 -134 l-30 4 0 184 0 184 25 0 24 0 3 -154z m648 -16 l0 -170 65 0 c51 0 65 -3 65 -15 0 -13 -24 -15 -160 -15 -136 0 -160 2 -160 15 0 12 14 15 70 15 l70 0 0 170 0 170 25 0 25 0 0 -170z m380 -15 l0 -185 -25 0 -25 0 0 185 0 185 25 0 25 0 0 -185z m503 171 c9 -23 -2 -26 -85 -26 -75 0 -81 -2 -109 -29 -16 -16 -29 -38 -29 -49 0 -11 -3 -27 -6 -36 -5 -14 8 -16 109 -16 89 0 116 -3 120 -14 3 -8 3 -17 0 -20 -4 -3 -57 -6 -120 -6 l-113 0 6 -27 c19 -80 56 -103 160 -103 50 0 64 -3 64 -15 0 -21 -159 -21 -200 0 -47 24 -72 69 -78 140 -6 83 3 128 35 166 36 42 54 48 154 48 66 1 88 -2 92 -13z m277 -66 l0 -80 71 0 c64 0 73 3 99 29 21 21 31 42 36 80 6 46 9 51 32 51 24 0 25 -1 19 -57 -5 -51 -10 -62 -43 -90 -23 -20 -31 -33 -22 -33 8 0 27 -9 42 -21 22 -17 26 -28 26 -69 0 -32 -6 -55 -19 -71 -18 -23 -28 -24 -151 -29 -72 -3 -134 -3 -136 -1 -2 2 -4 87 -4 188 l0 183 25 0 c25 0 25 -1 25 -80z"/>
 <path d="M2910 1256 c0 -14 32 -75 44 -85 13 -11 17 -10 22 5 3 11 12 34 20 52 7 17 10 32 5 32 -5 0 -11 -7 -15 -15 -3 -8 -15 -15 -26 -15 -11 0 -23 7 -26 15 -5 13 -24 22 -24 11z m59 -57 c-9 -17 -13 -19 -20 -8 -14 22 -11 29 11 29 18 0 19 -3 9 -21z"/>
 <path d="M3142 1248 c-24 -24 -9 -88 22 -88 5 0 2 8 -7 18 -23 25 -21 49 4 63 31 16 52 -7 25 -27 -19 -14 -19 -14 2 -14 18 0 22 6 22 30 0 26 -4 30 -28 30 -15 0 -33 -5 -40 -12z"/>
 <path d="M3410 1240 c0 -14 -7 -20 -24 -20 -13 0 -27 6 -29 13 -3 6 -6 -7 -6 -30 -1 -24 3 -43 8 -43 5 0 7 9 4 20 -4 16 0 20 22 20 23 0 26 -4 22 -21 -3 -13 -1 -19 6 -16 14 4 19 97 6 97 -5 0 -9 -9 -9 -20z"/>
 <path d="M3613 1242 c22 -24 21 -41 0 -65 -17 -19 -17 -19 2 -16 36 7 29 99 -8 99 -5 0 -3 -8 6 -18z"/>
 <path d="M3557 1243 c-11 -11 -8 -58 5 -71 20 -20 30 -13 14 10 -9 12 -13 31 -10 45 6 23 3 29 -9 16z"/>
 <path d="M1620 930 c13 -24 26 -26 34 -4 9 23 8 24 -19 24 -23 0 -24 -2 -15 -20z"/>
 <path d="M985 837 c-4 -8 -5 -39 -3 -68 l3 -54 75 -3 c95 -3 124 10 128 58 5 61 -14 74 -112 79 -69 2 -87 0 -91 -12z"/>
 <path d="M3812 784 l3 -69 88 0 c97 0 117 11 117 65 0 53 -20 65 -120 69 l-91 3 3 -68z"/>
 </g>


</svg>